PathFileType	4	(X/Y/Z)	./resultDataOpenSim/trcMotMarkerGrf/sub10/qtm-15-04.trc
DataRate	CameraRate	NumFrames	NumMarkers	Units	OrigDataRate	OrigDataStartFrame	OrigNumFrames
250.000000	250.000000	6	24	m	250.000000	188	501
Frame#	Time	L.Toe.Tip			R.Toe.Tip			L.Ankle.Lat			R.Ankle.Lat			L.Ankle.Med			R.Ankle.Med			L.Heel			R.Heel			L.Knee.Lat			R.Knee.Lat			L.Knee.Med			R.Knee.Med			L.Thigh.Upper			R.Thigh.Upper			L.ASIS			R.ASIS			V.Sacral			L.Acromium			R.Acromium			C7			L.Elbow			R.Elbow			L.Wrist.Lat			R.Wrist.Lat
		X1	Y1	Z1	X2	Y2	Z2	X3	Y3	Z3	X4	Y4	Z4	X5	Y5	Z5	X6	Y6	Z6	X7	Y7	Z7	X8	Y8	Z8	X9	Y9	Z9	X10	Y10	Z10	X11	Y11	Z11	X12	Y12	Z12	X13	Y13	Z13	X14	Y14	Z14	X15	Y15	Z15	X16	Y16	Z16	X17	Y17	Z17	X18	Y18	Z18	X19	Y19	Z19	X20	Y20	Z20	X21	Y21	Z21	X22	Y22	Z22	X23	Y23	Z23	X24	Y24	Z24

188	0.748	0.10107626	-0.057465631	-0.066970866	-0.53244464	0.099200847	0.014960506	-0.021443472	-0.035446957	-0.13508063	-0.54064388	0.24765704	0.0218272	-0.038265934	-0.012157119	-0.052554437	-0.4923273	0.21539028	-0.044178598	-0.094380904	-0.062945768	-0.11757493	-0.56032993	0.27773423	-0.038996235	5.6347444e-05	0.34481223	-0.16598446	-0.19600484	0.3563738	0.11252908	-0.014856114	0.32723807	-0.045523672	-0.12761043	0.31884615	0.0023775623	-0.056252516	0.73849702	-0.23439527	-0.19371275	0.75550128	0.12283047	-0.046252144	0.8478971	-0.15100764	-0.10018094	0.85217927	0.061703138	-0.26148816	0.86778611	-0.10382144	-0.16831027	1.3117866	-0.23635787	-0.22545233	1.3125261	0.074296076	-0.26706695	1.3242046	-0.094722172	-0.29250519	1.0036065	-0.28276242	-0.243655	0.960276	0.15140561	-0.2420829	0.77567812	-0.35070485	-0.0062484199	0.90200826	0.23123293
189	0.752	0.10145291	-0.057494697	-0.066714638	-0.51907575	0.10514591	0.020422676	-0.020764381	-0.033756009	-0.13393213	-0.52589574	0.2532853	0.022724918	-0.037655728	-0.011380652	-0.051601068	-0.4778538	0.21910959	-0.042792583	-0.094040757	-0.062205121	-0.11624651	-0.54522155	0.28247357	-0.038701857	0.0075144385	0.34439691	-0.16376913	-0.18119257	0.35367322	0.11541427	-0.010218164	0.32765223	-0.04343316	-0.11269668	0.31623968	0.0049718551	-0.049642045	0.73410542	-0.23454413	-0.18600625	0.75240041	0.12221476	-0.041094342	0.84333607	-0.15113067	-0.09397076	0.84838517	0.061118666	-0.25569491	0.86454989	-0.10406344	-0.159445	1.308241	-0.23706693	-0.21849114	1.3093413	0.074200272	-0.25973167	1.320609	-0.095807077	-0.28319324	0.99932716	-0.28466288	-0.23766505	0.95710099	0.15199872	-0.23186015	0.77228656	-0.35465131	-0.0017651271	0.89957821	0.23584617
190	0.756	0.10188089	-0.05752455	-0.066481759	-0.50506002	0.11113766	0.025497842	-0.020146118	-0.032047951	-0.13300152	-0.51086816	0.2586581	0.023769197	-0.037195308	-0.010290346	-0.050927561	-0.46301511	0.22285685	-0.041303488	-0.093596389	-0.061345767	-0.11499803	-0.52983869	0.28718063	-0.038342416	0.016216202	0.34514303	-0.1611172	-0.16607698	0.35128952	0.11840461	-0.0047175564	0.32934864	-0.041020717	-0.09753724	0.31411857	0.0074253846	-0.043869838	0.73026769	-0.2348934	-0.1788094	0.74908772	0.12190575	-0.036319053	0.83883887	-0.1514365	-0.087974372	0.84443557	0.060457683	-0.25014444	0.86109626	-0.10424243	-0.15060755	1.3048706	-0.23770752	-0.21144515	1.3063277	0.07432134	-0.25238029	1.3170193	-0.096981775	-0.2738073	0.99499905	-0.28665702	-0.23149515	0.95404963	0.15282396	-0.22148323	0.76897626	-0.35867292	0.0026128509	0.89716732	0.24076769
191	0.76	0.10229868	-0.057578081	-0.066283967	-0.49027231	0.11701842	0.030174019	-0.019665193	-0.030755544	-0.13227141	-0.49559483	0.26374561	0.025007929	-0.036769721	-0.0092496378	-0.050330536	-0.44788279	0.22669268	-0.039720855	-0.093209822	-0.060456475	-0.11396276	-0.51431228	0.29180192	-0.037732884	0.025863781	0.34643695	-0.15812671	-0.15065171	0.34928105	0.12137712	0.0014600791	0.33162464	-0.038609244	-0.082185787	0.31265579	0.0096922083	-0.039255683	0.72729814	-0.23550587	-0.1719541	0.74544314	0.12191259	-0.031768225	0.83443454	-0.15192187	-0.082222969	0.840386	0.059695439	-0.24493594	0.85752512	-0.104389	-0.14184159	1.3017099	-0.23823136	-0.20427562	1.3035179	0.074608708	-0.24498422	1.3135094	-0.09811714	-0.26432405	0.9907128	-0.28872039	-0.22515118	0.95117693	0.15389307	-0.2109824	0.76581063	-0.36271917	0.0068543227	0.8948245	0.24598406
192	0.764	0.10265492	-0.057650077	-0.066148252	-0.47467433	0.12262813	0.034448528	-0.019274289	-0.029937572	-0.13174189	-0.48002838	0.26857782	0.026492628	-0.036194001	-0.008379623	-0.049755798	-0.43252324	0.23062045	-0.0380694	-0.092929892	-0.059565296	-0.11323724	-0.4988175	0.29622263	-0.03667178	0.035998739	0.3477895	-0.15503448	-0.13495476	0.34768199	0.12426399	0.0080796145	0.33394879	-0.036385218	-0.066665696	0.31193822	0.011738166	-0.035747959	0.72513371	-0.2363927	-0.16521515	0.74149836	0.12206372	-0.027275824	0.8301535	-0.15256088	-0.076740254	0.83629227	0.058839354	-0.24013365	0.85391643	-0.10445401	-0.13316105	1.2987474	-0.23859141	-0.19692661	1.3009299	0.075018765	-0.23748078	1.3102523	-0.099045697	-0.25471081	0.9865701	-0.29085668	-0.2186657	0.94850234	0.1552	-0.20032195	0.76286136	-0.36679424	0.010888683	0.89261557	0.25150258
193	0.768	0.10293152	-0.057736565	-0.066094099	-0.45831358	0.12786795	0.038309924	-0.018888866	-0.029471926	-0.13143499	-0.46418673	0.2731711	0.028216978	-0.035448705	-0.0076869942	-0.049302529	-0.41694843	0.23458487	-0.036387788	-0.092705892	-0.058695725	-0.11284226	-0.48342802	0.30036345	-0.035151832	0.046175218	0.34893015	-0.15210309	-0.11902091	0.34651699	0.12704319	0.015036886	0.33599633	-0.034402103	-0.050954969	0.31194527	0.013564819	-0.032932566	0.72340439	-0.23749873	-0.15852108	0.73737352	0.12222428	-0.022727169	0.82604762	-0.15331322	-0.071531769	0.83220316	0.057938401	-0.23574234	0.85028896	-0.10441333	-0.12456082	1.2959371	-0.23876793	-0.18934774	1.2985585	0.07551523	-0.22972864	1.3074813	-0.099699033	-0.24497366	0.98266276	-0.29301462	-0.21210941	0.9460209	0.15671764	-0.18939877	0.76021603	-0.37096162	0.014658219	0.89061437	0.25733375
